<svg width="24" height="19" viewBox="0 0 24 19" fill="none" xmlns="http://www.w3.org/2000/svg">
<path d="M9.2078 13.0967C9.2078 14.1308 8.66849 15.823 7.39197 15.823C6.11544 15.823 5.57614 14.1308 5.57614 13.0967C5.57614 12.0627 6.11544 10.3705 7.39197 10.3705C8.66849 10.3705 9.2078 12.0627 9.2078 13.0967ZM23.7493 10.5981C23.7493 12.1765 23.591 13.8488 22.8834 15.2985C21.0082 19.0885 15.8527 18.9994 12.1616 18.9994C8.41121 18.9994 2.94887 19.133 0.999449 15.2985C0.277075 13.8637 0 12.1765 0 10.5981C0 8.52501 0.68774 6.56569 2.05332 4.97746C1.79604 4.19571 1.67235 3.37438 1.67235 2.56294C1.67235 1.49917 1.91479 0.964815 2.39472 0C4.63606 0 6.07091 0.445299 7.77789 1.7812C9.21275 1.4398 10.6872 1.28642 12.1666 1.28642C13.5025 1.28642 14.8483 1.42991 16.1446 1.74161C17.8268 0.42056 19.2617 0 21.4783 0C21.9631 0.964815 22.2006 1.49917 22.2006 2.56294C22.2006 3.37438 22.072 4.18086 21.8197 4.94777C23.1803 6.55085 23.7493 8.52501 23.7493 10.5981ZM20.5679 13.0967C20.5679 10.9247 19.2468 9.00989 16.9313 9.00989C15.9961 9.00989 15.1006 9.17811 14.1605 9.30675C13.4233 9.42055 12.6861 9.46508 11.9291 9.46508C11.177 9.46508 10.4398 9.42055 9.69763 9.30675C8.7724 9.17811 7.86695 9.00989 6.92688 9.00989C4.61132 9.00989 3.29027 10.9247 3.29027 13.0967C3.29027 17.4409 7.26827 18.1088 10.7317 18.1088H13.1165C16.5948 18.1088 20.5679 17.4458 20.5679 13.0967ZM16.481 10.3705C15.2045 10.3705 14.6652 12.0627 14.6652 13.0967C14.6652 14.1308 15.2045 15.823 16.481 15.823C17.7575 15.823 18.2969 14.1308 18.2969 13.0967C18.2969 12.0627 17.7575 10.3705 16.481 10.3705Z" fill="black"/>
</svg>
